# xmcd
#
# Track frame offsets:
#	150
#	13590
#	29572
#	43655
#	54840
#	67230
#	79777
#	92817
#	106620
#	122475
#	135760
#	149570
#
# Disc length: 2195 seconds
#
# Revision: 0
# Processed by: cddbd v1.4PL0 Copyright (c) Steve Scherf et al.
# Submitted via: EasyCDDAExtractor 4.6.9.1
#
DISCID=9a08910c
DTITLE=JimBo Trout and the Fishpeople - It's Breaktime!
DYEAR=2002
DGENRE=
TTITLE0=Ain't No Use
TTITLE1=Jim Kackson's Kansas City Blues
TTITLE2=Lady Be Good
TTITLE3=Little Maggie
TTITLE4=Lonesome Fiddle Blues
TTITLE5=My Little Girl
TTITLE6=Raleigh and Spencer
TTITLE7=Night Train to Memphis
TTITLE8=Lester Leaps In
TTITLE9=Mess Around
TTITLE10=Wheel Hoss
TTITLE11=Little Brown Jug
EXTD=
EXTT0=
EXTT1=
EXTT2=
EXTT3=
EXTT4=
EXTT5=
EXTT6=
EXTT7=
EXTT8=
EXTT9=
EXTT10=
EXTT11=
PLAYORDER=
